<?xml version="1.0" encoding="UTF-8" standalone="no"?>
<!DOCTYPE svg PUBLIC "-//W3C//DTD SVG 1.1//EN" "http://www.w3.org/Graphics/SVG/1.1/DTD/svg11.dtd">
<svg version="1.1" xmlns="http://www.w3.org/2000/svg" xmlns:xlink="http://www.w3.org/1999/xlink" preserveAspectRatio="xMidYMid meet" viewBox="0 0 550 320" width="550" height="320"><defs><path d="M438.25 129.18L438.26 129.25L438.27 129.32L438.28 129.38L438.28 129.38L438.28 129.4L438.29 129.52L438.31 129.69L438.33 129.89L438.36 130.14L438.4 130.43L438.44 130.78L438.48 131.18L438.54 131.64L438.6 132.16L438.67 132.75L438.74 133.4L438.83 134.14L438.92 134.94L439.09 136.42L439.24 137.9L439.39 139.37L439.54 140.85L439.67 142.33L439.8 143.8L439.91 145.28L440.02 146.76L440.12 148.24L440.22 149.72L440.3 151.2L440.38 152.67L440.45 154.15L440.51 155.63L440.56 157.11L440.6 158.59L440.64 160.07L440.67 161.55L440.69 163.04L440.7 164.52L440.7 166L440.7 167.48L440.68 168.96L440.66 170.44L440.63 171.92L440.59 173.4L440.55 174.88L440.5 176.36L440.43 177.84L440.36 179.32L440.29 180.8L440.2 182.28L440.1 183.76L440 185.23L439.89 186.71L439.77 188.19L439.64 189.67L439.51 191.15L439.37 192.62L439.21 194.1L439.11 195.05L439.02 195.95L438.93 196.81L438.84 197.64L438.76 198.42L438.6 199.89L438.53 200.58L438.46 201.24L438.39 201.87L438.33 202.47L438.27 203.05L438.21 203.62L438.15 204.16L438.09 204.69L438.04 205.2L437.99 205.7L437.93 206.19L437.88 206.67L437.83 207.14L437.78 207.61L437.73 208.08L437.68 208.55L437.63 209.02L437.58 209.5L437.53 209.98L437.48 210.47L437.43 210.98L437.37 211.49L437.32 212.02L437.26 212.57L437.2 213.13L437.14 213.72L437.07 214.33L437.01 214.96L436.94 215.62L436.87 216.31L436.79 217.04L436.71 217.79L436.63 218.59L436.4 220.58L436.16 222.57L435.9 224.56L435.62 226.54L435.31 228.53L434.99 230.5L434.64 232.48L434.27 234.45L433.88 236.42L433.48 238.38L433.05 240.34L432.6 242.3L432.13 244.25L431.64 246.2L431.13 248.14L430.6 250.08L430.04 252.02L429.47 253.95L428.88 255.87L428.27 257.79L427.63 259.7L426.98 261.61L426.31 263.52L425.62 265.42L424.9 267.31L424.17 269.2L423.42 271.08L422.64 272.95L421.85 274.82L421.04 276.68L420.21 278.54L419.35 280.39L418.48 282.23L417.59 284.07L416.68 285.9L415.75 287.72L414.8 289.54L413.83 291.35L412.84 293.15L411.83 294.94L411.7 295.16L411.57 295.41L411.42 295.66L411.27 295.93L410.93 296.53L410.75 296.85L410.55 297.19L410.35 297.54L409.92 298.3L409.69 298.7L409.21 299.55L408.95 300.01L408.69 300.47L408.41 300.96L408.13 301.46L407.83 301.97L407.53 302.5L407.22 303.05L406.9 303.62L406.57 304.2L406.23 304.79L405.88 305.41L405.52 306.04L405.15 306.68L404.78 307.34L404.39 308.02L404 308.72L403.59 309.43L403.18 310.15L402.76 310.9L402.32 311.65L401.88 312.43L401.43 313.22L400.97 314.03L400.5 314.85L400.03 315.69L399.54 316.55L383.12 304.05L383.49 4.02L384.34 5.32L385.18 6.59L386 7.84L386.81 9.07L387.6 10.26L388.37 11.44L389.12 12.59L389.86 13.72L390.59 14.82L391.3 15.89L391.99 16.94L392.66 17.97L393.32 18.97L393.97 19.95L394.59 20.91L395.2 21.84L395.8 22.74L396.38 23.62L396.94 24.48L399.03 27.65L399.51 28.38L399.98 29.09L400.42 29.77L400.86 30.43L401.28 31.07L401.68 31.68L402.06 32.26L402.43 32.82L402.78 33.36L403.12 33.87L403.44 34.36L403.74 34.82L404.03 35.26L404.3 35.67L404.56 36.06L404.8 36.42L405.02 36.76L406.36 38.83L407.67 40.9L408.96 42.99L410.22 45.08L411.46 47.19L412.67 49.31L413.86 51.43L415.01 53.57L416.15 55.72L417.25 57.88L418.33 60.04L419.39 62.22L420.41 64.41L421.41 66.6L422.39 68.81L423.34 71.02L424.26 73.24L425.15 75.47L426.02 77.71L426.86 79.95L427.67 82.21L428.46 84.47L429.22 86.74L429.95 89.01L430.66 91.29L431.33 93.58L431.99 95.88L432.61 98.18L433.2 100.49L433.77 102.8L434.31 105.13L434.82 107.45L435.31 109.78L435.76 112.12L436.19 114.46L436.59 116.81L436.97 119.16L437.31 121.52L437.63 123.88L437.92 126.24L437.98 126.78L438.03 127.26L438.08 127.68L438.12 128.04L438.16 128.35L438.19 128.61L438.21 128.82L438.23 129L438.25 129.14L438.26 129.24L438.27 129.31L438.27 129.36L438.28 129.38L438.26 129.25L438.26 129.25L438.25 129.18ZM324.44 128.61L324.43 128.65L324.43 128.66L324.43 128.66L324.42 128.73L324.42 128.75L324.42 128.78L324.42 128.75L324.41 128.8L324.41 128.81L324.42 128.78L324.42 128.75L324.42 128.74L324.42 128.73L324.43 128.66L324.44 128.61L324.44 128.56L324.46 128.42L324.5 128.03L324.53 127.77L324.57 127.47L324.61 127.1L324.66 126.69L324.71 126.21L324.78 125.67L325.06 123.3L325.38 120.94L325.72 118.59L326.1 116.24L326.5 113.89L326.93 111.55L327.38 109.21L327.87 106.88L328.38 104.55L328.92 102.23L329.49 99.92L330.08 97.61L330.7 95.31L331.35 93.01L332.03 90.72L332.74 88.44L333.47 86.16L334.23 83.9L335.01 81.63L335.83 79.38L336.67 77.14L337.54 74.9L338.43 72.67L339.35 70.45L340.3 68.23L341.27 66.03L342.27 63.84L343.3 61.65L344.35 59.47L345.43 57.31L346.54 55.15L347.67 53L348.83 50.86L350.02 48.73L351.23 46.62L352.46 44.51L353.73 42.41L355.01 40.33L356.33 38.26L357.67 36.19L357.89 35.85L358.39 35.1L358.66 34.69L360.26 32.25L361.01 31.11L361.83 29.86L362.26 29.2L362.71 28.52L363.18 27.81L363.66 27.08L364.16 26.32L364.67 25.54L365.2 24.73L365.75 23.9L366.31 23.05L366.89 22.17L367.48 21.26L368.1 20.34L368.72 19.38L369.37 18.4L370.03 17.4L370.7 16.37L371.39 15.32L372.1 14.25L372.82 13.14L373.56 12.02L374.32 10.87L375.09 9.69L375.88 8.5L376.69 7.27L377.51 6.02L378.34 4.75L379.2 3.45L379.57 303.48L363.14 315.97L362.66 315.12L362.18 314.28L361.71 313.45L361.25 312.65L360.8 311.86L360.36 311.08L359.93 310.32L359.51 309.58L359.09 308.85L358.69 308.14L358.3 307.45L357.91 306.77L357.53 306.11L357.17 305.46L356.81 304.83L356.46 304.22L356.12 303.62L355.79 303.04L355.47 302.48L355.16 301.93L354.85 301.4L354.56 300.88L354.28 300.38L354 299.9L353.74 299.43L353.48 298.98L353.23 298.54L352.99 298.13L352.76 297.72L352.54 297.34L352.33 296.97L352.13 296.61L351.94 296.28L351.76 295.96L351.58 295.65L351.42 295.36L351.26 295.09L351.12 294.83L350.98 294.59L350.85 294.37L349.84 292.57L348.85 290.77L347.89 288.96L346.94 287.15L346 285.33L345.09 283.5L344.2 281.66L343.33 279.82L342.48 277.97L341.65 276.11L340.83 274.25L340.04 272.38L339.27 270.5L338.52 268.62L337.78 266.74L337.07 264.84L336.38 262.94L335.71 261.04L335.05 259.13L334.42 257.22L333.81 255.3L333.22 253.37L332.64 251.44L332.09 249.51L331.56 247.57L331.05 245.63L330.56 243.68L330.09 241.73L329.64 239.77L329.21 237.81L328.8 235.85L328.42 233.88L328.05 231.91L327.7 229.93L327.38 227.95L327.07 225.97L326.79 223.99L326.53 222L326.28 220.01L326.06 218.02L325.98 217.22L325.9 216.47L325.82 215.74L325.68 214.39L325.55 213.15L325.49 212.56L325.43 211.99L325.37 211.45L325.31 210.92L325.26 210.4L325.2 209.9L325.15 209.41L325.1 208.93L325.05 208.45L325 207.98L324.95 207.51L324.9 207.04L324.85 206.57L324.8 206.1L324.75 205.61L324.7 205.12L324.65 204.62L324.59 204.11L324.54 203.59L324.48 203.04L324.42 202.48L324.36 201.9L324.29 201.29L324.23 200.66L324.16 200.01L324.09 199.32L324.01 198.6L323.93 197.85L323.85 197.07L323.76 196.24L323.67 195.38L323.58 194.47L323.48 193.52L323.32 192.05L323.18 190.57L323.04 189.1L322.92 187.62L322.8 186.14L322.69 184.66L322.58 183.18L322.49 181.7L322.4 180.23L322.32 178.75L322.25 177.27L322.19 175.79L322.14 174.31L322.09 172.83L322.05 171.35L322.02 169.87L322 168.38L321.99 166.9L321.99 165.42L321.99 163.94L322 162.46L322.02 160.98L322.05 159.5L322.08 158.02L322.13 156.54L322.18 155.06L322.24 153.58L322.31 152.1L322.38 150.62L322.47 149.14L322.56 147.67L322.66 146.19L322.77 144.71L322.89 143.23L323.02 141.75L323.15 140.28L323.29 138.8L323.44 137.32L323.6 135.85L323.77 134.37L323.86 133.57L323.95 132.83L324.02 132.18L324.09 131.59L324.15 131.06L324.2 130.61L324.25 130.2L324.29 129.86L324.32 129.56L324.35 129.32L324.38 129.11L324.4 128.95L324.41 128.82L324.42 128.75L324.42 128.73L324.43 128.66L324.43 128.62L324.44 128.61Z" id="fJB6gnjW"></path><path d="M227.63 129.18L227.64 129.25L227.64 129.32L227.65 129.38L227.65 129.38L227.65 129.4L227.67 129.52L227.69 129.69L227.71 129.89L227.74 130.14L227.77 130.43L227.81 130.78L227.86 131.18L227.91 131.64L227.97 132.16L228.04 132.75L228.12 133.4L228.2 134.14L228.3 134.94L228.46 136.42L228.62 137.9L228.77 139.37L228.91 140.85L229.05 142.33L229.17 143.8L229.29 145.28L229.4 146.76L229.5 148.24L229.59 149.72L229.68 151.2L229.75 152.67L229.82 154.15L229.88 155.63L229.93 157.11L229.98 158.59L230.01 160.07L230.04 161.55L230.06 163.04L230.07 164.52L230.08 166L230.07 167.48L230.06 168.96L230.04 170.44L230.01 171.92L229.97 173.4L229.92 174.88L229.87 176.36L229.81 177.84L229.74 179.32L229.66 180.8L229.57 182.28L229.48 183.76L229.38 185.23L229.27 186.71L229.15 188.19L229.02 189.67L228.89 191.15L228.74 192.62L228.59 194.1L228.49 195.05L228.39 195.95L228.3 196.81L228.22 197.64L228.13 198.42L227.98 199.89L227.9 200.58L227.83 201.24L227.77 201.87L227.7 202.47L227.64 203.05L227.58 203.62L227.53 204.16L227.47 204.69L227.42 205.2L227.36 205.7L227.31 206.19L227.26 206.67L227.21 207.14L227.16 207.61L227.11 208.08L227.06 208.55L227.01 209.02L226.96 209.5L226.91 209.98L226.86 210.47L226.8 210.98L226.75 211.49L226.69 212.02L226.64 212.57L226.58 213.13L226.51 213.72L226.45 214.33L226.38 214.96L226.31 215.62L226.24 216.31L226.16 217.04L226.08 217.79L226 218.59L225.78 220.58L225.54 222.57L225.28 224.56L224.99 226.54L224.69 228.53L224.36 230.5L224.02 232.48L223.65 234.45L223.26 236.42L222.85 238.38L222.42 240.34L221.97 242.3L221.5 244.25L221.01 246.2L220.5 248.14L219.97 250.08L219.42 252.02L218.85 253.95L218.26 255.87L217.64 257.79L217.01 259.7L216.36 261.61L215.68 263.52L214.99 265.42L214.28 267.31L213.55 269.2L212.79 271.08L212.02 272.95L211.23 274.82L210.41 276.68L209.58 278.54L208.73 280.39L207.86 282.23L206.97 284.07L206.06 285.9L205.13 287.72L204.18 289.54L203.21 291.35L202.22 293.15L201.21 294.94L201.08 295.16L200.94 295.41L200.8 295.66L200.64 295.93L200.3 296.53L200.12 296.85L199.93 297.19L199.73 297.54L199.3 298.3L199.07 298.7L198.58 299.55L198.33 300.01L198.06 300.47L197.79 300.96L197.5 301.46L197.21 301.97L196.91 302.5L196.59 303.05L196.27 303.62L195.94 304.2L195.6 304.79L195.25 305.41L194.9 306.04L194.53 306.68L194.15 307.34L193.77 308.02L193.37 308.72L192.97 309.43L192.55 310.15L192.13 310.9L191.7 311.65L191.26 312.43L190.81 313.22L190.35 314.03L189.88 314.85L189.4 315.69L188.92 316.55L172.5 304.05L172.87 4.02L173.72 5.32L174.56 6.59L175.38 7.84L176.18 9.07L176.97 10.26L177.74 11.44L178.5 12.59L179.24 13.72L179.96 14.82L180.67 15.89L181.36 16.94L182.04 17.97L182.7 18.97L183.34 19.95L183.97 20.91L184.58 21.84L185.17 22.74L185.75 23.62L186.32 24.48L188.4 27.65L188.89 28.38L189.35 29.09L189.8 29.77L190.23 30.43L190.65 31.07L191.05 31.68L191.44 32.26L191.81 32.82L192.16 33.36L192.49 33.87L192.81 34.36L193.12 34.82L193.41 35.26L193.68 35.67L193.93 36.06L194.17 36.42L194.4 36.76L195.74 38.83L197.05 40.9L198.34 42.99L199.6 45.08L200.84 47.19L202.05 49.31L203.23 51.43L204.39 53.57L205.52 55.72L206.63 57.88L207.71 60.04L208.76 62.22L209.79 64.41L210.79 66.6L211.76 68.81L212.71 71.02L213.63 73.24L214.53 75.47L215.4 77.71L216.24 79.95L217.05 82.21L217.84 84.47L218.6 86.74L219.33 89.01L220.03 91.29L220.71 93.58L221.36 95.88L221.98 98.18L222.58 100.49L223.15 102.8L223.69 105.13L224.2 107.45L224.68 109.78L225.14 112.12L225.57 114.46L225.97 116.81L226.34 119.16L226.69 121.52L227 123.88L227.29 126.24L227.35 126.78L227.41 127.26L227.46 127.68L227.5 128.04L227.53 128.35L227.56 128.61L227.59 128.82L227.61 129L227.62 129.14L227.64 129.24L227.64 129.31L227.65 129.36L227.65 129.38L227.64 129.25L227.64 129.25L227.63 129.18ZM112.76 128.61L112.76 128.65L112.76 128.66L112.75 128.66L112.75 128.73L112.75 128.75L112.74 128.78L112.75 128.75L112.74 128.8L112.74 128.81L112.74 128.78L112.75 128.75L112.75 128.74L112.75 128.73L112.76 128.66L112.76 128.61L112.77 128.56L112.78 128.42L112.83 128.03L112.86 127.77L112.89 127.47L112.94 127.1L112.98 126.69L113.04 126.21L113.1 125.67L113.39 123.3L113.71 120.94L114.05 118.59L114.42 116.24L114.82 113.89L115.25 111.55L115.71 109.21L116.19 106.88L116.7 104.55L117.24 102.23L117.81 99.92L118.41 97.61L119.03 95.31L119.68 93.01L120.36 90.72L121.06 88.44L121.79 86.16L122.55 83.9L123.34 81.63L124.15 79.38L124.99 77.14L125.86 74.9L126.76 72.67L127.68 70.45L128.62 68.23L129.6 66.03L130.6 63.84L131.63 61.65L132.68 59.47L133.76 57.31L134.87 55.15L136 53L137.16 50.86L138.34 48.73L139.55 46.62L140.79 44.51L142.05 42.41L143.34 40.33L144.65 38.26L145.99 36.19L146.22 35.85L146.71 35.1L146.98 34.69L148.59 32.25L149.34 31.11L150.16 29.86L150.59 29.2L151.04 28.52L151.51 27.81L151.99 27.08L152.48 26.32L153 25.54L153.53 24.73L154.08 23.9L154.64 23.05L155.22 22.17L155.81 21.26L156.42 20.34L157.05 19.38L157.69 18.4L158.35 17.4L159.03 16.37L159.72 15.32L160.43 14.25L161.15 13.14L161.89 12.02L162.65 10.87L163.42 9.69L164.21 8.5L165.01 7.27L165.83 6.02L166.67 4.75L167.52 3.45L167.89 303.48L151.47 315.97L150.98 315.12L150.51 314.28L150.04 313.45L149.58 312.65L149.13 311.86L148.69 311.08L148.26 310.32L147.83 309.58L147.42 308.85L147.02 308.14L146.62 307.45L146.24 306.77L145.86 306.11L145.49 305.46L145.13 304.83L144.79 304.22L144.45 303.62L144.12 303.04L143.79 302.48L143.48 301.93L143.18 301.4L142.89 300.88L142.6 300.38L142.33 299.9L142.06 299.43L141.8 298.98L141.56 298.54L141.32 298.13L141.09 297.72L140.87 297.34L140.66 296.97L140.46 296.61L140.27 296.28L140.08 295.96L139.91 295.65L139.74 295.36L139.59 295.09L139.44 294.83L139.31 294.59L139.18 294.37L138.17 292.57L137.18 290.77L136.21 288.96L135.26 287.15L134.33 285.33L133.42 283.5L132.53 281.66L131.66 279.82L130.81 277.97L129.97 276.11L129.16 274.25L128.37 272.38L127.6 270.5L126.84 268.62L126.11 266.74L125.4 264.84L124.7 262.94L124.03 261.04L123.38 259.13L122.75 257.22L122.13 255.3L121.54 253.37L120.97 251.44L120.42 249.51L119.89 247.57L119.38 245.63L118.89 243.68L118.42 241.73L117.97 239.77L117.54 237.81L117.13 235.85L116.74 233.88L116.37 231.91L116.03 229.93L115.7 227.95L115.4 225.97L115.11 223.99L114.85 222L114.61 220.01L114.39 218.02L114.3 217.22L114.22 216.47L114.15 215.74L114 214.39L113.87 213.15L113.81 212.56L113.75 211.99L113.69 211.45L113.64 210.92L113.58 210.4L113.53 209.9L113.48 209.41L113.43 208.93L113.38 208.45L113.33 207.98L113.28 207.51L113.23 207.04L113.18 206.57L113.13 206.1L113.08 205.61L113.03 205.12L112.97 204.62L112.92 204.11L112.86 203.59L112.81 203.04L112.75 202.48L112.68 201.9L112.62 201.29L112.55 200.66L112.49 200.01L112.41 199.32L112.34 198.6L112.26 197.85L112.18 197.07L112.09 196.24L112 195.38L111.9 194.47L111.8 193.52L111.65 192.05L111.51 190.57L111.37 189.1L111.24 187.62L111.12 186.14L111.01 184.66L110.91 183.18L110.81 181.7L110.73 180.23L110.65 178.75L110.58 177.27L110.52 175.79L110.46 174.31L110.42 172.83L110.38 171.35L110.35 169.87L110.33 168.38L110.32 166.9L110.31 165.42L110.31 163.94L110.33 162.46L110.35 160.98L110.37 159.5L110.41 158.02L110.45 156.54L110.51 155.06L110.57 153.58L110.63 152.1L110.71 150.62L110.8 149.14L110.89 147.67L110.99 146.19L111.1 144.71L111.22 143.23L111.34 141.75L111.48 140.28L111.62 138.8L111.77 137.32L111.93 135.85L112.09 134.37L112.19 133.57L112.27 132.83L112.35 132.18L112.42 131.59L112.48 131.06L112.53 130.61L112.58 130.2L112.62 129.86L112.65 129.56L112.68 129.32L112.7 129.11L112.72 128.95L112.74 128.82L112.75 128.75L112.75 128.73L112.75 128.66L112.76 128.62L112.76 128.61Z" id="cqMNUmHbx"></path><path d="M328.6 129.18L328.61 129.25L328.62 129.32L328.63 129.38L328.63 129.38L328.63 129.4L328.64 129.52L328.66 129.69L328.69 129.89L328.71 130.14L328.75 130.43L328.79 130.78L328.84 131.18L328.89 131.64L328.95 132.16L329.02 132.75L329.09 133.4L329.18 134.14L329.27 134.94L329.44 136.42L329.6 137.9L329.75 139.37L329.89 140.85L330.02 142.33L330.15 143.8L330.26 145.28L330.37 146.76L330.47 148.24L330.57 149.72L330.65 151.2L330.73 152.67L330.8 154.15L330.86 155.63L330.91 157.11L330.95 158.59L330.99 160.07L331.02 161.55L331.04 163.04L331.05 164.52L331.05 166L331.05 167.48L331.03 168.96L331.01 170.44L330.98 171.92L330.95 173.4L330.9 174.88L330.85 176.36L330.78 177.84L330.71 179.32L330.64 180.8L330.55 182.28L330.46 183.76L330.35 185.23L330.24 186.71L330.12 188.19L330 189.67L329.86 191.15L329.72 192.62L329.57 194.1L329.47 195.05L329.37 195.95L329.28 196.81L329.19 197.64L329.11 198.42L328.95 199.89L328.88 200.58L328.81 201.24L328.74 201.87L328.68 202.47L328.62 203.05L328.56 203.62L328.5 204.16L328.45 204.69L328.39 205.2L328.34 205.7L328.29 206.19L328.24 206.67L328.19 207.14L328.14 207.61L328.09 208.08L328.04 208.55L327.99 209.02L327.94 209.5L327.89 209.98L327.83 210.47L327.78 210.98L327.73 211.49L327.67 212.02L327.61 212.57L327.55 213.13L327.49 213.72L327.43 214.33L327.36 214.96L327.29 215.62L327.22 216.31L327.14 217.04L327.06 217.79L326.98 218.59L326.76 220.58L326.51 222.57L326.25 224.56L325.97 226.54L325.66 228.53L325.34 230.5L324.99 232.48L324.62 234.45L324.24 236.42L323.83 238.38L323.4 240.34L322.95 242.3L322.48 244.25L321.99 246.2L321.48 248.14L320.95 250.08L320.4 252.02L319.82 253.95L319.23 255.87L318.62 257.79L317.99 259.7L317.33 261.61L316.66 263.52L315.97 265.42L315.25 267.31L314.52 269.2L313.77 271.08L313 272.95L312.2 274.82L311.39 276.68L310.56 278.54L309.71 280.39L308.83 282.23L307.94 284.07L307.03 285.9L306.1 287.72L305.15 289.54L304.18 291.35L303.19 293.15L302.18 294.94L302.06 295.16L301.92 295.41L301.77 295.66L301.62 295.93L301.28 296.53L301.1 296.85L300.91 297.19L300.7 297.54L300.27 298.3L300.04 298.7L299.56 299.55L299.3 300.01L299.04 300.47L298.76 300.96L298.48 301.46L298.18 301.97L297.88 302.5L297.57 303.05L297.25 303.62L296.92 304.2L296.58 304.79L296.23 305.41L295.87 306.04L295.5 306.68L295.13 307.34L294.74 308.02L294.35 308.72L293.94 309.43L293.53 310.15L293.11 310.9L292.68 311.65L292.23 312.43L291.78 313.22L291.33 314.03L290.86 314.85L290.38 315.69L289.89 316.55L273.48 304.05L273.84 4.02L274.7 5.32L275.53 6.59L276.35 7.84L277.16 9.07L277.95 10.26L278.72 11.44L279.48 12.59L280.22 13.72L280.94 14.82L281.65 15.89L282.34 16.94L283.01 17.97L283.67 18.97L284.32 19.95L284.94 20.91L285.56 21.84L286.15 22.74L286.73 23.62L287.29 24.48L289.38 27.65L289.86 28.38L290.33 29.09L290.78 29.77L291.21 30.43L291.63 31.07L292.03 31.68L292.41 32.26L292.78 32.82L293.13 33.36L293.47 33.87L293.79 34.36L294.09 34.82L294.38 35.26L294.65 35.67L294.91 36.06L295.15 36.42L295.37 36.76L296.71 38.83L298.02 40.9L299.31 42.99L300.58 45.08L301.81 47.19L303.02 49.31L304.21 51.43L305.37 53.57L306.5 55.72L307.6 57.88L308.68 60.04L309.74 62.22L310.77 64.41L311.77 66.6L312.74 68.81L313.69 71.02L314.61 73.24L315.5 75.47L316.37 77.71L317.21 79.95L318.03 82.21L318.81 84.47L319.57 86.74L320.3 89.01L321.01 91.29L321.69 93.58L322.34 95.88L322.96 98.18L323.55 100.49L324.12 102.8L324.66 105.13L325.18 107.45L325.66 109.78L326.12 112.12L326.54 114.46L326.95 116.81L327.32 119.16L327.66 121.52L327.98 123.88L328.27 126.24L328.33 126.78L328.38 127.26L328.43 127.68L328.47 128.04L328.51 128.35L328.54 128.61L328.56 128.82L328.58 129L328.6 129.14L328.61 129.24L328.62 129.31L328.62 129.36L328.63 129.38L328.61 129.25L328.61 129.25L328.6 129.18ZM213.74 128.61L213.73 128.65L213.73 128.66L213.73 128.66L213.72 128.73L213.72 128.75L213.72 128.78L213.72 128.75L213.71 128.8L213.71 128.81L213.72 128.78L213.72 128.75L213.72 128.74L213.72 128.73L213.73 128.66L213.74 128.61L213.74 128.56L213.76 128.42L213.8 128.03L213.83 127.77L213.87 127.47L213.91 127.1L213.96 126.69L214.01 126.21L214.08 125.67L214.37 123.3L214.68 120.94L215.03 118.59L215.4 116.24L215.8 113.89L216.23 111.55L216.68 109.21L217.17 106.88L217.68 104.55L218.22 102.23L218.79 99.92L219.38 97.61L220.01 95.31L220.66 93.01L221.33 90.72L222.04 88.44L222.77 86.16L223.53 83.9L224.32 81.63L225.13 79.38L225.97 77.14L226.84 74.9L227.73 72.67L228.65 70.45L229.6 68.23L230.57 66.03L231.57 63.84L232.6 61.65L233.66 59.47L234.74 57.31L235.84 55.15L236.97 53L238.13 50.86L239.32 48.73L240.53 46.62L241.76 44.51L243.03 42.41L244.32 40.33L245.63 38.26L246.97 36.19L247.19 35.85L247.69 35.1L247.96 34.69L249.56 32.25L250.31 31.11L251.13 29.86L251.57 29.2L252.02 28.52L252.48 27.81L252.96 27.08L253.46 26.32L253.97 25.54L254.5 24.73L255.05 23.9L255.61 23.05L256.19 22.17L256.79 21.26L257.4 20.34L258.02 19.38L258.67 18.4L259.33 17.4L260 16.37L260.69 15.32L261.4 14.25L262.13 13.14L262.87 12.02L263.62 10.87L264.39 9.69L265.18 8.5L265.99 7.27L266.81 6.02L267.65 4.75L268.5 3.45L268.87 303.48L252.45 315.97L251.96 315.12L251.48 314.28L251.01 313.45L250.55 312.65L250.1 311.86L249.66 311.08L249.23 310.32L248.81 309.58L248.4 308.85L247.99 308.14L247.6 307.45L247.21 306.77L246.84 306.11L246.47 305.46L246.11 304.83L245.76 304.22L245.42 303.62L245.09 303.04L244.77 302.48L244.46 301.93L244.16 301.4L243.86 300.88L243.58 300.38L243.3 299.9L243.04 299.43L242.78 298.98L242.53 298.54L242.29 298.13L242.07 297.72L241.85 297.34L241.64 296.97L241.43 296.61L241.24 296.28L241.06 295.96L240.88 295.65L240.72 295.36L240.56 295.09L240.42 294.83L240.28 294.59L240.15 294.37L239.15 292.57L238.16 290.77L237.19 288.96L236.24 287.15L235.31 285.33L234.4 283.5L233.5 281.66L232.63 279.82L231.78 277.97L230.95 276.11L230.14 274.25L229.34 272.38L228.57 270.5L227.82 268.62L227.09 266.74L226.37 264.84L225.68 262.94L225.01 261.04L224.35 259.13L223.72 257.22L223.11 255.3L222.52 253.37L221.94 251.44L221.39 249.51L220.86 247.57L220.35 245.63L219.86 243.68L219.39 241.73L218.94 239.77L218.51 237.81L218.1 235.85L217.72 233.88L217.35 231.91L217 229.93L216.68 227.95L216.37 225.97L216.09 223.99L215.83 222L215.59 220.01L215.36 218.02L215.28 217.22L215.2 216.47L215.12 215.74L214.98 214.39L214.85 213.15L214.79 212.56L214.73 211.99L214.67 211.45L214.61 210.92L214.56 210.4L214.51 209.9L214.45 209.41L214.4 208.93L214.35 208.45L214.3 207.98L214.25 207.51L214.2 207.04L214.15 206.57L214.1 206.1L214.05 205.61L214 205.12L213.95 204.62L213.89 204.11L213.84 203.59L213.78 203.04L213.72 202.48L213.66 201.9L213.6 201.29L213.53 200.66L213.46 200.01L213.39 199.32L213.31 198.6L213.23 197.85L213.15 197.07L213.06 196.24L212.97 195.38L212.88 194.47L212.78 193.52L212.63 192.05L212.48 190.57L212.35 189.1L212.22 187.62L212.1 186.14L211.99 184.66L211.89 183.18L211.79 181.7L211.7 180.23L211.63 178.75L211.56 177.27L211.49 175.79L211.44 174.31L211.39 172.83L211.36 171.35L211.33 169.87L211.31 168.38L211.29 166.9L211.29 165.42L211.29 163.94L211.3 162.46L211.32 160.98L211.35 159.5L211.38 158.02L211.43 156.54L211.48 155.06L211.54 153.58L211.61 152.1L211.69 150.62L211.77 149.14L211.86 147.67L211.97 146.19L212.08 144.71L212.19 143.23L212.32 141.75L212.45 140.28L212.59 138.8L212.74 137.32L212.9 135.85L213.07 134.37L213.16 133.57L213.25 132.83L213.32 132.18L213.39 131.59L213.45 131.06L213.51 130.61L213.55 130.2L213.59 129.86L213.63 129.56L213.65 129.32L213.68 129.11L213.7 128.95L213.71 128.82L213.72 128.75L213.72 128.73L213.73 128.66L213.74 128.62L213.74 128.61Z" id="bwHOz6f"></path><path d="M118.88 130.74L118.89 130.81L118.89 130.88L118.9 130.93L118.9 130.94L118.9 130.95L118.92 131.08L118.94 131.24L118.96 131.45L118.99 131.69L119.02 131.99L119.06 132.33L119.11 132.74L119.16 133.19L119.22 133.72L119.29 134.3L119.37 134.96L119.45 135.69L119.55 136.5L119.71 137.98L119.87 139.45L120.02 140.93L120.16 142.41L120.3 143.88L120.42 145.36L120.54 146.84L120.65 148.32L120.75 149.79L120.84 151.27L120.93 152.75L121 154.23L121.07 155.71L121.13 157.19L121.18 158.67L121.23 160.15L121.26 161.63L121.29 163.11L121.31 164.59L121.32 166.07L121.33 167.55L121.32 169.03L121.31 170.52L121.29 172L121.26 173.48L121.22 174.96L121.17 176.44L121.12 177.92L121.06 179.4L120.99 180.88L120.91 182.36L120.82 183.83L120.73 185.31L120.63 186.79L120.52 188.27L120.4 189.75L120.27 191.23L120.13 192.7L119.99 194.18L119.84 195.66L119.74 196.6L119.64 197.51L119.55 198.37L119.47 199.2L119.38 199.98L119.23 201.45L119.15 202.14L119.08 202.79L119.02 203.42L118.95 204.03L118.89 204.61L118.83 205.17L118.77 205.72L118.72 206.24L118.66 206.76L118.61 207.25L118.56 207.74L118.51 208.23L118.46 208.7L118.41 209.17L118.36 209.64L118.31 210.11L118.26 210.58L118.21 211.06L118.16 211.54L118.11 212.03L118.05 212.53L118 213.05L117.94 213.58L117.89 214.12L117.83 214.69L117.76 215.27L117.7 215.88L117.63 216.52L117.56 217.18L117.49 217.87L117.41 218.6L117.33 219.35L117.25 220.14L117.03 222.14L116.79 224.13L116.52 226.12L116.24 228.1L115.94 230.08L115.61 232.06L115.26 234.04L114.9 236.01L114.51 237.98L114.1 239.94L113.67 241.9L113.22 243.86L112.75 245.81L112.26 247.76L111.75 249.7L111.22 251.64L110.67 253.57L110.1 255.5L109.51 257.43L108.89 259.35L108.26 261.26L107.61 263.17L106.93 265.08L106.24 266.97L105.53 268.87L104.8 270.75L104.04 272.64L103.27 274.51L102.48 276.38L101.66 278.24L100.83 280.1L99.98 281.95L99.11 283.79L98.22 285.63L97.31 287.46L96.38 289.28L95.43 291.1L94.46 292.9L93.47 294.7L92.46 296.5L92.33 296.72L92.19 296.96L92.05 297.22L91.89 297.49L91.55 298.09L91.37 298.41L91.18 298.75L90.98 299.1L90.55 299.86L90.32 300.26L89.83 301.11L89.58 301.56L89.31 302.03L89.04 302.51L88.75 303.01L88.46 303.53L88.16 304.06L87.84 304.61L87.52 305.17L87.19 305.76L86.85 306.35L86.5 306.97L86.15 307.59L85.78 308.24L85.4 308.9L85.02 309.58L84.62 310.27L84.22 310.98L83.8 311.71L83.38 312.45L82.95 313.21L82.51 313.99L82.06 314.78L81.6 315.59L81.13 316.41L80.65 317.25L80.17 318.1L63.75 305.61L64.12 5.58L64.97 6.88L65.81 8.15L66.63 9.4L67.43 10.62L68.22 11.82L68.99 13L69.75 14.15L70.49 15.27L71.21 16.37L71.92 17.45L72.61 18.5L73.29 19.53L73.95 20.53L74.59 21.51L75.22 22.46L75.83 23.39L76.42 24.3L77 25.18L77.56 26.03L79.65 29.21L80.14 29.94L80.6 30.65L81.05 31.33L81.48 31.99L81.9 32.63L82.3 33.24L82.69 33.82L83.05 34.38L83.41 34.92L83.74 35.43L84.06 35.92L84.37 36.38L84.66 36.82L84.93 37.23L85.18 37.62L85.42 37.98L85.65 38.32L86.98 40.38L88.3 42.46L89.59 44.54L90.85 46.64L92.09 48.75L93.3 50.86L94.48 52.99L95.64 55.13L96.77 57.28L97.88 59.43L98.96 61.6L100.01 63.78L101.04 65.96L102.04 68.16L103.01 70.36L103.96 72.58L104.88 74.8L105.78 77.03L106.64 79.27L107.49 81.51L108.3 83.76L109.09 86.03L109.85 88.29L110.58 90.57L111.28 92.85L111.96 95.14L112.61 97.44L113.23 99.74L113.83 102.05L114.4 104.36L114.94 106.68L115.45 109.01L115.93 111.34L116.39 113.68L116.82 116.02L117.22 118.37L117.59 120.72L117.94 123.07L118.25 125.43L118.54 127.8L118.6 128.34L118.66 128.82L118.71 129.23L118.75 129.6L118.78 129.91L118.81 130.17L118.84 130.38L118.86 130.56L118.87 130.69L118.89 130.8L118.89 130.87L118.9 130.92L118.9 130.93L118.89 130.81L118.89 130.81L118.88 130.74ZM4.01 130.17L4.01 130.2L4 130.22L4 130.22L4 130.29L3.99 130.31L3.99 130.34L3.99 130.31L3.99 130.36L3.99 130.37L3.99 130.34L3.99 130.31L4 130.3L4 130.29L4 130.22L4.01 130.16L4.02 130.12L4.03 129.98L4.08 129.59L4.11 129.33L4.14 129.02L4.19 128.66L4.23 128.24L4.29 127.77L4.35 127.22L4.64 124.86L4.96 122.5L5.3 120.14L5.67 117.79L6.07 115.45L6.5 113.1L6.96 110.77L7.44 108.44L7.95 106.11L8.49 103.79L9.06 101.47L9.66 99.17L10.28 96.86L10.93 94.57L11.61 92.28L12.31 90L13.04 87.72L13.8 85.45L14.59 83.19L15.4 80.94L16.24 78.69L17.11 76.46L18.01 74.23L18.93 72L19.87 69.79L20.85 67.59L21.85 65.39L22.88 63.21L23.93 61.03L25.01 58.86L26.12 56.7L27.25 54.56L28.41 52.42L29.59 50.29L30.8 48.17L32.04 46.07L33.3 43.97L34.59 41.89L35.9 39.81L37.24 37.75L37.47 37.41L37.96 36.66L38.23 36.25L39.83 33.81L40.59 32.66L41.41 31.42L41.84 30.76L42.29 30.08L42.75 29.37L43.24 28.64L43.73 27.88L44.25 27.1L44.78 26.29L45.32 25.46L45.89 24.61L46.47 23.73L47.06 22.82L47.67 21.89L48.3 20.94L48.94 19.96L49.6 18.96L50.28 17.93L50.97 16.88L51.68 15.8L52.4 14.7L53.14 13.58L53.9 12.43L54.67 11.25L55.46 10.05L56.26 8.83L57.08 7.58L57.92 6.31L58.77 5.01L59.14 305.04L42.72 317.53L42.23 316.68L41.76 315.84L41.29 315.01L40.83 314.2L40.38 313.41L39.94 312.64L39.51 311.88L39.08 311.14L38.67 310.41L38.27 309.7L37.87 309L37.49 308.33L37.11 307.67L36.74 307.02L36.38 306.39L36.04 305.78L35.7 305.18L35.37 304.6L35.04 304.04L34.73 303.49L34.43 302.95L34.14 302.44L33.85 301.94L33.58 301.46L33.31 300.99L33.05 300.54L32.81 300.1L32.57 299.68L32.34 299.28L32.12 298.9L31.91 298.53L31.71 298.17L31.52 297.83L31.33 297.51L31.16 297.21L30.99 296.92L30.84 296.65L30.69 296.39L30.56 296.15L30.43 295.92L29.42 294.13L28.43 292.33L27.46 290.52L26.51 288.71L25.58 286.88L24.67 285.05L23.78 283.22L22.91 281.37L22.05 279.52L21.22 277.67L20.41 275.81L19.62 273.94L18.84 272.06L18.09 270.18L17.36 268.29L16.65 266.4L15.95 264.5L15.28 262.6L14.63 260.69L14 258.77L13.38 256.86L12.79 254.93L12.22 253L11.67 251.07L11.14 249.13L10.63 247.18L10.13 245.24L9.66 243.28L9.22 241.33L8.79 239.37L8.38 237.4L7.99 235.44L7.62 233.47L7.28 231.49L6.95 229.51L6.65 227.53L6.36 225.55L6.1 223.56L5.86 221.57L5.64 219.57L5.55 218.78L5.47 218.03L5.4 217.3L5.25 215.95L5.12 214.7L5.06 214.12L5 213.55L4.94 213.01L4.89 212.48L4.83 211.96L4.78 211.46L4.73 210.97L4.68 210.49L4.63 210.01L4.58 209.54L4.53 209.07L4.48 208.6L4.43 208.13L4.38 207.65L4.33 207.17L4.27 206.68L4.22 206.18L4.17 205.67L4.11 205.14L4.05 204.6L4 204.04L3.93 203.46L3.87 202.85L3.8 202.22L3.73 201.56L3.66 200.88L3.59 200.16L3.51 199.41L3.42 198.62L3.34 197.8L3.25 196.94L3.15 196.03L3.05 195.08L2.9 193.61L2.76 192.13L2.62 190.65L2.49 189.18L2.37 187.7L2.26 186.22L2.16 184.74L2.06 183.26L1.98 181.78L1.9 180.3L1.83 178.82L1.77 177.34L1.71 175.86L1.67 174.38L1.63 172.9L1.6 171.42L1.58 169.94L1.57 168.46L1.56 166.98L1.56 165.5L1.58 164.02L1.59 162.54L1.62 161.06L1.66 159.58L1.7 158.1L1.75 156.62L1.82 155.14L1.88 153.66L1.96 152.18L2.05 150.7L2.14 149.22L2.24 147.74L2.35 146.27L2.47 144.79L2.59 143.31L2.73 141.83L2.87 140.36L3.02 138.88L3.18 137.41L3.34 135.93L3.44 135.12L3.52 134.39L3.6 133.73L3.67 133.14L3.73 132.62L3.78 132.16L3.83 131.76L3.87 131.42L3.9 131.12L3.93 130.87L3.95 130.67L3.97 130.51L3.99 130.38L3.99 130.31L4 130.29L4 130.22L4.01 130.18L4.01 130.17Z" id="cpzoTEyAf"></path><path d="M547.55 129.18L547.56 129.25L547.57 129.32L547.57 129.38L547.58 129.38L547.58 129.4L547.59 129.52L547.61 129.69L547.63 129.89L547.66 130.14L547.7 130.43L547.74 130.78L547.78 131.18L547.84 131.64L547.9 132.16L547.97 132.75L548.04 133.4L548.13 134.14L548.22 134.94L548.39 136.42L548.54 137.9L548.69 139.37L548.84 140.85L548.97 142.33L549.1 143.8L549.21 145.28L549.32 146.76L549.42 148.24L549.52 149.72L549.6 151.2L549.68 152.67L549.75 154.15L549.81 155.63L549.86 157.11L549.9 158.59L549.94 160.07L549.97 161.55L549.99 163.04L550 164.52L550 166L550 167.48L549.98 168.96L549.96 170.44L549.93 171.92L549.89 173.4L549.85 174.88L549.79 176.36L549.73 177.84L549.66 179.32L549.58 180.8L549.5 182.28L549.4 183.76L549.3 185.23L549.19 186.71L549.07 188.19L548.94 189.67L548.81 191.15L548.67 192.62L548.51 194.1L548.41 195.05L548.32 195.95L548.23 196.81L548.14 197.64L548.06 198.42L547.9 199.89L547.83 200.58L547.76 201.24L547.69 201.87L547.63 202.47L547.57 203.05L547.51 203.62L547.45 204.16L547.39 204.69L547.34 205.2L547.29 205.7L547.23 206.19L547.18 206.67L547.13 207.14L547.08 207.61L547.03 208.08L546.98 208.55L546.93 209.02L546.88 209.5L546.83 209.98L546.78 210.47L546.73 210.98L546.67 211.49L546.62 212.02L546.56 212.57L546.5 213.13L546.44 213.72L546.37 214.33L546.31 214.96L546.24 215.62L546.16 216.31L546.09 217.04L546.01 217.79L545.92 218.59L545.7 220.58L545.46 222.57L545.2 224.56L544.92 226.54L544.61 228.53L544.29 230.5L543.94 232.48L543.57 234.45L543.18 236.42L542.78 238.38L542.35 240.34L541.9 242.3L541.43 244.25L540.94 246.2L540.43 248.14L539.9 250.08L539.34 252.02L538.77 253.95L538.18 255.87L537.57 257.79L536.93 259.7L536.28 261.61L535.61 263.52L534.92 265.42L534.2 267.31L533.47 269.2L532.72 271.08L531.94 272.95L531.15 274.82L530.34 276.68L529.51 278.54L528.65 280.39L527.78 282.23L526.89 284.07L525.98 285.9L525.05 287.72L524.1 289.54L523.13 291.35L522.14 293.15L521.13 294.94L521 295.16L520.87 295.41L520.72 295.66L520.57 295.93L520.23 296.53L520.05 296.85L519.85 297.19L519.65 297.54L519.22 298.3L518.99 298.7L518.51 299.55L518.25 300.01L517.98 300.47L517.71 300.96L517.43 301.46L517.13 301.97L516.83 302.5L516.52 303.05L516.2 303.62L515.87 304.2L515.53 304.79L515.18 305.41L514.82 306.04L514.45 306.68L514.08 307.34L513.69 308.02L513.3 308.72L512.89 309.43L512.48 310.15L512.06 310.9L511.62 311.65L511.18 312.43L510.73 313.22L510.27 314.03L509.8 314.85L509.33 315.69L508.84 316.55L492.42 304.05L492.79 4.02L493.64 5.32L494.48 6.59L495.3 7.84L496.11 9.07L496.89 10.26L497.67 11.44L498.42 12.59L499.16 13.72L499.89 14.82L500.6 15.89L501.29 16.94L501.96 17.97L502.62 18.97L503.27 19.95L503.89 20.91L504.5 21.84L505.1 22.74L505.68 23.62L506.24 24.48L508.33 27.65L508.81 28.38L509.28 29.09L509.72 29.77L510.16 30.43L510.57 31.07L510.98 31.68L511.36 32.26L511.73 32.82L512.08 33.36L512.42 33.87L512.74 34.36L513.04 34.82L513.33 35.26L513.6 35.67L513.86 36.06L514.1 36.42L514.32 36.76L515.66 38.83L516.97 40.9L518.26 42.99L519.52 45.08L520.76 47.19L521.97 49.31L523.16 51.43L524.31 53.57L525.45 55.72L526.55 57.88L527.63 60.04L528.69 62.22L529.71 64.41L530.71 66.6L531.69 68.81L532.64 71.02L533.56 73.24L534.45 75.47L535.32 77.71L536.16 79.95L536.97 82.21L537.76 84.47L538.52 86.74L539.25 89.01L539.96 91.29L540.63 93.58L541.28 95.88L541.91 98.18L542.5 100.49L543.07 102.8L543.61 105.13L544.12 107.45L544.61 109.78L545.06 112.12L545.49 114.46L545.89 116.81L546.27 119.16L546.61 121.52L546.93 123.88L547.21 126.24L547.28 126.78L547.33 127.26L547.38 127.68L547.42 128.04L547.46 128.35L547.49 128.61L547.51 128.82L547.53 129L547.55 129.14L547.56 129.24L547.57 129.31L547.57 129.36L547.57 129.38L547.56 129.25L547.56 129.25L547.55 129.18ZM432.69 128.61L432.68 128.65L432.68 128.66L432.68 128.66L432.67 128.73L432.67 128.75L432.67 128.78L432.67 128.75L432.66 128.8L432.66 128.81L432.67 128.78L432.67 128.75L432.67 128.74L432.67 128.73L432.68 128.66L432.69 128.61L432.69 128.56L432.71 128.42L432.75 128.03L432.78 127.77L432.82 127.47L432.86 127.1L432.91 126.69L432.96 126.21L433.03 125.67L433.31 123.3L433.63 120.94L433.97 118.59L434.35 116.24L434.75 113.89L435.18 111.55L435.63 109.21L436.12 106.88L436.63 104.55L437.17 102.23L437.74 99.92L438.33 97.61L438.95 95.31L439.6 93.01L440.28 90.72L440.99 88.44L441.72 86.16L442.48 83.9L443.26 81.63L444.08 79.38L444.92 77.14L445.79 74.9L446.68 72.67L447.6 70.45L448.55 68.23L449.52 66.03L450.52 63.84L451.55 61.65L452.6 59.47L453.68 57.31L454.79 55.15L455.92 53L457.08 50.86L458.27 48.73L459.48 46.62L460.71 44.51L461.98 42.41L463.26 40.33L464.58 38.26L465.92 36.19L466.14 35.85L466.64 35.1L466.91 34.69L468.51 32.25L469.26 31.11L470.08 29.86L470.51 29.2L470.96 28.52L471.43 27.81L471.91 27.08L472.41 26.32L472.92 25.54L473.45 24.73L474 23.9L474.56 23.05L475.14 22.17L475.73 21.26L476.35 20.34L476.97 19.38L477.62 18.4L478.28 17.4L478.95 16.37L479.64 15.32L480.35 14.25L481.07 13.14L481.81 12.02L482.57 10.87L483.34 9.69L484.13 8.5L484.94 7.27L485.76 6.02L486.59 4.75L487.45 3.45L487.82 303.48L471.39 315.97L470.91 315.12L470.43 314.28L469.96 313.45L469.5 312.65L469.05 311.86L468.61 311.08L468.18 310.32L467.76 309.58L467.34 308.85L466.94 308.14L466.55 307.45L466.16 306.77L465.78 306.11L465.42 305.46L465.06 304.83L464.71 304.22L464.37 303.62L464.04 303.04L463.72 302.48L463.41 301.93L463.1 301.4L462.81 300.88L462.53 300.38L462.25 299.9L461.99 299.43L461.73 298.98L461.48 298.54L461.24 298.13L461.01 297.72L460.79 297.34L460.58 296.97L460.38 296.61L460.19 296.28L460.01 295.96L459.83 295.65L459.67 295.36L459.51 295.09L459.37 294.83L459.23 294.59L459.1 294.37L458.09 292.57L457.1 290.77L456.14 288.96L455.19 287.15L454.25 285.33L453.34 283.5L452.45 281.66L451.58 279.82L450.73 277.97L449.9 276.11L449.08 274.25L448.29 272.38L447.52 270.5L446.77 268.62L446.03 266.74L445.32 264.84L444.63 262.94L443.95 261.04L443.3 259.13L442.67 257.22L442.06 255.3L441.47 253.37L440.89 251.44L440.34 249.51L439.81 247.57L439.3 245.63L438.81 243.68L438.34 241.73L437.89 239.77L437.46 237.81L437.05 235.85L436.67 233.88L436.3 231.91L435.95 229.93L435.63 227.95L435.32 225.97L435.04 223.99L434.78 222L434.53 220.01L434.31 218.02L434.23 217.22L434.15 216.47L434.07 215.74L433.93 214.39L433.8 213.15L433.73 212.56L433.68 211.99L433.62 211.45L433.56 210.92L433.51 210.4L433.45 209.9L433.4 209.41L433.35 208.93L433.3 208.45L433.25 207.98L433.2 207.51L433.15 207.04L433.1 206.57L433.05 206.1L433 205.61L432.95 205.12L432.9 204.62L432.84 204.11L432.79 203.59L432.73 203.04L432.67 202.48L432.61 201.9L432.54 201.29L432.48 200.66L432.41 200.01L432.34 199.32L432.26 198.6L432.18 197.85L432.1 197.07L432.01 196.24L431.92 195.38L431.83 194.47L431.73 193.52L431.57 192.05L431.43 190.57L431.29 189.1L431.17 187.62L431.05 186.14L430.94 184.66L430.83 183.18L430.74 181.7L430.65 180.23L430.57 178.75L430.5 177.27L430.44 175.79L430.39 174.31L430.34 172.83L430.3 171.35L430.27 169.87L430.25 168.38L430.24 166.9L430.24 165.42L430.24 163.94L430.25 162.46L430.27 160.98L430.3 159.5L430.33 158.02L430.38 156.54L430.43 155.06L430.49 153.58L430.56 152.1L430.63 150.62L430.72 149.14L430.81 147.67L430.91 146.19L431.02 144.71L431.14 143.23L431.27 141.75L431.4 140.28L431.54 138.8L431.69 137.32L431.85 135.85L432.02 134.37L432.11 133.57L432.2 132.83L432.27 132.18L432.34 131.59L432.4 131.06L432.45 130.61L432.5 130.2L432.54 129.86L432.57 129.56L432.6 129.32L432.63 129.11L432.65 128.95L432.66 128.82L432.67 128.75L432.67 128.73L432.68 128.66L432.68 128.62L432.69 128.61Z" id="ac9XzL8Wl"></path></defs><g><g><g><use xlink:href="#fJB6gnjW" opacity="1" fill="#61bcbc" fill-opacity="1"></use><g><use xlink:href="#fJB6gnjW" opacity="1" fill-opacity="0" stroke="#ffffff" stroke-width="0" stroke-opacity="1"></use></g></g><g><use xlink:href="#cqMNUmHbx" opacity="1" fill="#61bcbc" fill-opacity="1"></use><g><use xlink:href="#cqMNUmHbx" opacity="1" fill-opacity="0" stroke="#ffffff" stroke-width="0" stroke-opacity="1"></use></g></g><g><use xlink:href="#bwHOz6f" opacity="1" fill="#009999" fill-opacity="1"></use><g><use xlink:href="#bwHOz6f" opacity="1" fill-opacity="0" stroke="#ffffff" stroke-width="0" stroke-opacity="1"></use></g></g><g><use xlink:href="#cpzoTEyAf" opacity="1" fill="#009999" fill-opacity="1"></use><g><use xlink:href="#cpzoTEyAf" opacity="1" fill-opacity="0" stroke="#ffffff" stroke-width="0" stroke-opacity="1"></use></g></g><g><use xlink:href="#ac9XzL8Wl" opacity="1" fill="#009999" fill-opacity="1"></use><g><use xlink:href="#ac9XzL8Wl" opacity="1" fill-opacity="0" stroke="#ffffff" stroke-width="0" stroke-opacity="1"></use></g></g></g></g></svg>