<?xml version="1.0" encoding="UTF-8" standalone="no"?>
<!DOCTYPE svg PUBLIC "-//W3C//DTD SVG 1.1//EN" "http://www.w3.org/Graphics/SVG/1.1/DTD/svg11.dtd">
<svg version="1.1" xmlns="http://www.w3.org/2000/svg" xmlns:xlink="http://www.w3.org/1999/xlink" preserveAspectRatio="xMidYMid meet" viewBox="0 0 640 640" width="640" height="640"><defs><path d="M355.27 477.48L353.88 478.64L352.56 479.75L351.28 480.81L350.06 481.83L348.88 482.81L347.75 483.76L346.65 484.68L345.59 485.57L344.55 486.43L343.54 487.28L342.56 488.1L341.58 488.91L339.67 490.51L338.73 491.3L337.78 492.09L336.83 492.89L335.87 493.69L334.89 494.5L333.9 495.33L332.89 496.18L331.85 497.05L330.78 497.94L329.67 498.86L328.53 499.82L327.35 500.81L326.11 501.84L324.83 502.91L323.49 504.03L322.09 505.2L320.63 506.42L319.09 507.7L317.49 509.04L313.43 512.4L309.35 515.72L305.23 519L301.08 522.23L296.91 525.43L292.71 528.59L288.48 531.71L284.22 534.79L279.93 537.82L275.62 540.82L271.28 543.77L266.91 546.69L262.52 549.56L258.1 552.39L253.66 555.18L249.19 557.92L244.69 560.63L240.17 563.29L235.63 565.91L231.06 568.49L226.46 571.02L221.85 573.51L217.21 575.96L212.55 578.36L207.86 580.72L203.15 583.04L198.43 585.32L193.67 587.55L188.9 589.73L184.11 591.87L179.29 593.97L174.46 596.02L169.6 598.03L164.73 599.99L159.83 601.91L154.92 603.78L149.98 605.61L145.03 607.39L140.06 609.12L135.07 610.81L75.22 630.76L75.2 630.48L75.18 630.16L75.15 629.78L75.12 629.35L75.08 628.87L75.04 628.34L75 627.76L74.95 627.13L74.9 626.45L74.85 625.72L74.79 624.94L74.73 624.1L74.66 623.22L74.59 622.29L74.52 621.31L74.44 620.27L74.36 619.19L74.28 618.05L74.19 616.87L74.1 615.63L74 614.35L73.9 613.01L73.8 611.62L73.69 610.19L73.58 608.7L73.47 607.16L73.35 605.57L73.23 603.93L73.1 602.24L72.97 600.5L72.84 598.71L72.71 596.87L72.56 594.98L72.42 593.04L72.27 591.05L72.12 589L71.97 586.91L71.81 584.77L71.65 582.57L71.48 580.33L96.24 555.43L120.44 531.09L144.09 507.32L167.18 484.1L189.72 461.44L211.7 439.34L233.12 417.8L253.99 396.81L262.11 388.64L355.63 477.18L355.27 477.48ZM485.68 344.93L485.68 344.93L485.7 344.9L485.71 344.88L485.71 344.88L485.73 344.86L485.73 344.86L485.73 344.86L485.73 344.86L485.73 344.86L485.73 344.86L485.7 344.9L485.63 344.99L485.52 345.12L485.36 345.32L485.15 345.58L484.88 345.92L484.53 346.34L484.12 346.86L483.63 347.46L483.05 348.18L482.38 349.01L481.62 349.95L480.75 351.03L479.77 352.24L478.67 353.6L477.46 355.11L476.11 356.77L474.79 358.4L380.74 269.36L384.47 265.61L400.88 249.11L416.74 233.16L432.04 217.77L446.79 202.95L474.61 174.97L487.68 161.82L500.2 149.24L512.17 137.21L523.57 125.74L534.42 114.83L544.72 104.48L554.45 94.68L563.64 85.45L572.26 76.78L580.33 68.67L587.84 61.11L594.79 54.12L601.19 47.69L607.04 41.81L612.32 36.5L617.05 31.74L621.22 27.54L624.84 23.91L627.9 20.83L626.89 24.68L625.9 28.45L624.93 32.15L623.97 35.78L623.04 39.33L622.12 42.82L621.23 46.23L620.35 49.56L619.49 52.83L618.66 56.02L617.84 59.14L617.04 62.18L616.26 65.15L615.49 68.05L614.75 70.88L614.03 73.64L613.32 76.32L611.33 83.93L610.7 86.32L610.09 88.63L609.5 90.88L608.93 93.05L608.38 95.15L607.84 97.18L607.33 99.13L606.84 101.01L606.36 102.82L605.91 104.55L605.47 106.22L605.05 107.81L604.65 109.32L604.27 110.77L603.91 112.14L603.57 113.44L603.25 114.66L602.95 115.81L602.66 116.89L602.4 117.9L600.78 123.94L599.09 129.96L597.35 135.96L595.54 141.94L593.66 147.89L591.73 153.83L589.73 159.74L587.67 165.62L585.56 171.49L583.37 177.32L581.13 183.14L578.83 188.92L576.47 194.68L574.04 200.42L571.56 206.13L569.02 211.81L566.42 217.46L563.76 223.09L561.03 228.68L558.26 234.25L555.42 239.79L552.52 245.29L549.57 250.77L546.55 256.21L543.48 261.63L540.36 267.01L537.17 272.36L533.93 277.68L530.63 282.96L527.28 288.21L523.87 293.42L520.4 298.6L516.88 303.75L513.3 308.86L509.67 313.93L505.98 318.97L502.24 323.97L498.44 328.93L494.59 333.85L490.68 338.74L489.78 339.85L488.98 340.84L488.29 341.7L487.68 342.45L487.17 343.08L486.73 343.62L486.37 344.07L486.08 344.43L485.85 344.72L485.73 344.86L485.71 344.88L485.7 344.9L485.67 344.93L485.55 345.08L485.47 345.19L485.43 345.24L485.57 345.06L485.62 344.99L485.68 344.93Z" id="dXUHJVL3b"></path><path d="M246.04 390.95L225.22 411.98L203.85 433.57L181.91 455.72L159.43 478.43L136.39 501.7L112.79 525.53L88.64 549.92L63.93 574.87L61.7 574.7L59.53 574.54L57.4 574.38L55.32 574.22L53.3 574.07L51.32 573.92L49.4 573.78L47.52 573.63L45.69 573.5L43.92 573.36L42.19 573.23L40.52 573.11L38.89 572.98L37.31 572.86L35.79 572.75L34.31 572.64L32.89 572.53L31.51 572.43L30.19 572.33L28.91 572.23L27.68 572.14L26.51 572.05L25.38 571.97L24.31 571.88L23.28 571.81L22.31 571.73L21.38 571.66L20.51 571.6L19.68 571.54L18.9 571.48L18.18 571.42L17.5 571.37L16.88 571.32L16.3 571.28L15.78 571.24L15.3 571.21L14.88 571.17L14.5 571.15L14.18 571.12L13.9 571.1L14.69 568.69L15.47 566.32L16.23 563.99L16.98 561.72L17.71 559.48L18.43 557.3L19.13 555.16L19.82 553.06L20.49 551.01L21.15 549.01L21.79 547.05L22.42 545.14L23.03 543.27L23.63 541.45L24.21 539.68L24.78 537.95L25.33 536.26L26.39 533.03L26.9 531.49L27.39 529.99L27.86 528.53L28.33 527.12L28.77 525.76L29.21 524.44L29.62 523.17L30.03 521.94L30.41 520.76L30.79 519.63L31.14 518.54L31.49 517.49L31.81 516.5L32.13 515.54L32.42 514.64L32.7 513.78L32.97 512.96L33.22 512.19L33.46 511.47L33.68 510.79L33.89 510.16L35.56 505.16L37.27 500.18L39.03 495.22L40.83 490.28L42.68 485.35L44.57 480.45L46.51 475.56L48.49 470.69L50.52 465.85L52.59 461.02L54.7 456.21L56.86 451.43L59.07 446.66L61.32 441.92L63.61 437.2L65.94 432.5L68.32 427.82L70.74 423.17L73.2 418.54L75.71 413.93L78.26 409.34L80.85 404.78L83.49 400.24L86.16 395.73L88.88 391.24L91.64 386.78L94.44 382.34L97.29 377.93L100.17 373.54L103.1 369.18L106.06 364.84L109.07 360.54L112.12 356.25L115.21 352L118.34 347.78L121.5 343.58L124.71 339.41L127.96 335.27L131.25 331.15L134.58 327.07L135.91 325.45L137.18 323.9L138.4 322.43L139.56 321.01L140.68 319.66L141.75 318.36L142.77 317.12L143.76 315.92L144.71 314.76L145.63 313.64L146.52 312.56L147.39 311.51L148.23 310.48L149.06 309.47L149.87 308.49L150.68 307.51L151.47 306.54L152.26 305.58L153.85 303.66L154.65 302.68L155.46 301.7L156.28 300.7L157.13 299.67L157.99 298.62L158.88 297.55L159.79 296.43L160.74 295.28L161.51 294.35L254.51 382.4L246.04 390.95ZM297.64 157.39L297.91 157.16L298.27 156.87L298.7 156.51L299.23 156.08L299.86 155.56L300.6 154.95L301.45 154.26L302.43 153.46L303.53 152.55L308.39 148.61L313.28 144.72L318.21 140.89L323.18 137.11L328.19 133.39L333.24 129.72L338.32 126.11L343.44 122.55L348.6 119.05L353.79 115.61L359.01 112.22L364.27 108.89L369.57 105.62L374.9 102.4L380.26 99.24L385.65 96.14L391.08 93.1L396.53 90.11L402.02 87.18L407.54 84.32L413.09 81.51L418.67 78.75L424.28 76.06L429.91 73.43L435.58 70.86L441.27 68.35L446.99 65.9L452.74 63.51L458.51 61.18L464.32 58.91L470.14 56.7L475.99 54.55L481.87 52.47L487.77 50.45L493.69 48.49L499.63 46.59L505.6 44.76L511.59 42.98L517.61 41.28L523.64 39.63L524.63 39.37L525.69 39.08L526.83 38.78L528.03 38.46L529.31 38.12L530.66 37.76L532.08 37.38L533.57 36.98L535.13 36.57L536.77 36.13L538.48 35.67L540.26 35.2L542.11 34.71L544.03 34.19L546.02 33.66L548.09 33.11L550.23 32.54L552.43 31.95L554.71 31.34L557.07 30.72L559.49 30.07L561.99 29.4L564.55 28.72L567.19 28.01L572.68 26.55L575.54 25.79L578.46 25.01L581.46 24.21L584.53 23.39L587.67 22.55L590.88 21.69L594.16 20.82L597.52 19.92L600.94 19.01L604.44 18.07L608.01 17.12L611.65 16.15L615.37 15.16L619.15 14.15L616.1 17.23L612.49 20.88L608.32 25.08L603.6 29.85L598.33 35.18L592.5 41.06L586.12 47.51L579.18 54.52L571.68 62.09L563.63 70.22L555.02 78.91L545.86 88.16L536.15 97.98L525.87 108.35L515.05 119.28L503.67 130.78L491.73 142.84L479.24 155.45L466.19 168.63L452.59 182.37L438.43 196.66L423.71 211.52L408.44 226.94L392.62 242.92L376.24 259.47L372.87 262.87L278.31 173.33L279.87 172.02L282.86 169.52L285.87 167.04L287.52 165.69L289.01 164.46L290.36 163.36L291.56 162.38L292.62 161.5L293.56 160.73L294.37 160.06L295.08 159.49L295.68 159L296.18 158.58L296.59 158.25L296.92 157.98L297.15 157.79L297.17 157.77L297.28 157.68L297.43 157.56L297.64 157.39ZM297.17 157.77L297.17 157.77L297.18 157.76L297.19 157.75L297.22 157.73L297.28 157.68L297.36 157.62L297.44 157.55L297.49 157.51L297.5 157.5L297.51 157.5L297.56 157.45L297.57 157.45L297.6 157.42L297.57 157.45L297.57 157.45L297.56 157.45L297.5 157.5L297.49 157.51L297.36 157.61L297.19 157.75L297.19 157.75L297.18 157.76L297.17 157.77L297.15 157.79L297.14 157.79L297.17 157.77Z" id="dGCpMzsLU"></path><path d="M506.73 610.81C440.09 588.6 378.21 554.08 324.31 509.04C302.41 490.75 301.02 489.58 274.8 467.68C234.91 434.35 198.37 397.2 165.69 356.77C146.87 333.48 163.86 354.5 151.12 338.74C98.68 273.86 60.6 198.59 39.4 117.9C36 104.96 27.5 72.6 13.9 20.83C50.99 58.13 236.47 244.63 570.32 580.33C568.08 610.59 566.83 627.4 566.58 630.76C534.66 620.12 514.71 613.47 506.73 610.81Z" id="aAWTDCL2"></path><path d="M607.91 510.16C586 443.41 551.86 381.32 507.22 327.07C489.04 304.98 487.76 303.42 466 276.98C432.97 236.84 396.11 200.02 355.93 167.04C332.83 148.09 353.89 165.37 338.27 152.55C273.8 99.64 198.75 61.14 118.16 39.63C105.43 36.24 73.59 27.74 22.65 14.15C59.66 51.53 244.74 238.44 577.87 574.87C607.89 572.61 624.56 571.35 627.9 571.1C617.24 538.6 610.57 518.28 607.91 510.16Z" id="f4pG0i7jHR"></path></defs><g><g><g><use xlink:href="#dXUHJVL3b" opacity="1" fill="#f2733b" fill-opacity="1"></use><g><use xlink:href="#dXUHJVL3b" opacity="1" fill-opacity="0" stroke="#000000" stroke-width="1" stroke-opacity="0"></use></g></g><g><use xlink:href="#dGCpMzsLU" opacity="1" fill="#f2733b" fill-opacity="1"></use><g><use xlink:href="#dGCpMzsLU" opacity="1" fill-opacity="0" stroke="#000000" stroke-width="1" stroke-opacity="0"></use></g></g><g><use xlink:href="#aAWTDCL2" opacity="1" fill="#4b6a8e" fill-opacity="1"></use><g><use xlink:href="#aAWTDCL2" opacity="1" fill-opacity="0" stroke="#000000" stroke-width="1" stroke-opacity="0"></use></g></g><g><use xlink:href="#f4pG0i7jHR" opacity="1" fill="#4b6a8e" fill-opacity="1"></use><g><use xlink:href="#f4pG0i7jHR" opacity="1" fill-opacity="0" stroke="#000000" stroke-width="1" stroke-opacity="0"></use></g></g></g></g></svg>