<?xml version="1.0" encoding="UTF-8" standalone="no"?>
<!DOCTYPE svg PUBLIC "-//W3C//DTD SVG 1.1//EN" "http://www.w3.org/Graphics/SVG/1.1/DTD/svg11.dtd">
<svg version="1.1" xmlns="http://www.w3.org/2000/svg" xmlns:xlink="http://www.w3.org/1999/xlink" preserveAspectRatio="xMidYMid meet" viewBox="0 0 640 640" width="640" height="640"><defs><path d="M81.71 619.63C111.93 609.64 130.82 603.39 138.38 600.89C200.96 580.2 259.13 547.98 309.87 505.9C330.5 488.79 331.89 487.64 356.6 467.16C394.14 436.02 428.56 401.3 459.37 363.48C477.09 341.72 461.01 361.46 473.01 346.74C522.44 286.05 558.36 215.52 578.4 139.85C581.59 127.81 589.56 97.69 602.32 49.5C567.38 84.37 392.67 258.7 78.19 572.5C80.3 600.78 81.48 616.49 81.71 619.63Z" id="e2Ns8XeYA6"></path><path d="M81.71 619.63C111.93 609.64 130.82 603.39 138.38 600.89C200.96 580.2 259.13 547.98 309.87 505.9C330.5 488.79 331.89 487.64 356.6 467.16C394.14 436.02 428.56 401.3 459.37 363.48C477.09 341.72 461.01 361.46 473.01 346.74C522.44 286.05 558.36 215.52 578.4 139.85C581.59 127.81 589.56 97.69 602.32 49.5C567.38 84.37 392.67 258.7 78.19 572.5C80.3 600.78 81.48 616.49 81.71 619.63Z" id="d3e5VQ14tI"></path><path d="M24.94 560.86C34.94 530.64 41.19 511.75 43.68 504.19C64.38 441.61 96.59 383.45 138.67 332.71C155.78 312.07 156.93 310.68 177.42 285.98C208.55 248.43 243.27 214.01 281.09 183.21C302.86 165.48 283.12 181.56 297.84 169.57C358.53 120.14 429.05 84.21 504.72 64.18C516.77 60.99 546.88 53.02 595.07 40.26C560.2 75.2 385.87 249.91 72.08 564.39C43.8 562.27 28.08 561.1 24.94 560.86Z" id="b9SLUSVcSw"></path><path d="M1475.93 415.79C1485.93 385.57 1492.18 366.68 1494.67 359.12C1515.37 296.54 1547.58 238.38 1589.66 187.64C1606.77 167 1607.92 165.61 1628.41 140.91C1659.54 103.36 1694.26 68.94 1732.08 38.14C1753.85 20.41 1734.11 36.49 1748.83 24.5C1809.52 -24.93 1880.04 -60.86 1955.71 -80.89C1967.76 -84.08 1997.87 -92.05 2046.06 -104.81C2011.19 -69.87 1836.86 104.84 1523.07 419.32C1494.78 417.2 1479.07 416.02 1475.93 415.79Z" id="aU2OXLnE"></path><path d="M566.58 630.76C534.66 620.12 514.71 613.47 506.73 610.81C440.09 588.6 378.21 554.08 324.31 509.04C302.41 490.75 301.02 489.58 274.8 467.68C234.91 434.35 198.37 397.2 165.69 356.77C146.87 333.48 163.86 354.5 151.12 338.74C98.68 273.86 60.6 198.59 39.4 117.9C36 104.96 27.5 72.6 13.9 20.83C50.99 58.13 236.47 244.63 570.32 580.33C568.08 610.59 566.83 627.4 566.58 630.76Z" id="c2MnwmgjYs"></path><path d="M566.58 630.76C534.66 620.12 514.71 613.47 506.73 610.81C440.09 588.6 378.21 554.08 324.31 509.04C302.41 490.75 301.02 489.58 274.8 467.68C234.91 434.35 198.37 397.2 165.69 356.77C146.87 333.48 163.86 354.5 151.12 338.74C98.68 273.86 60.6 198.59 39.4 117.9C36 104.96 27.5 72.6 13.9 20.83C50.99 58.13 236.47 244.63 570.32 580.33C568.08 610.59 566.83 627.4 566.58 630.76Z" id="iveTSZ6pR"></path><path d="M627.9 571.1C617.24 538.6 610.57 518.28 607.91 510.16C586 443.41 551.86 381.32 507.22 327.07C489.04 304.98 487.76 303.42 466 276.98C432.97 236.84 396.11 200.02 355.93 167.04C332.83 148.09 353.89 165.37 338.27 152.55C273.8 99.64 198.75 61.14 118.16 39.63C105.43 36.24 73.59 27.74 22.65 14.15C59.66 51.53 244.74 238.44 577.87 574.87C607.89 572.61 624.56 571.35 627.9 571.1Z" id="dcoQSZUtp"></path><path d="M627.9 571.1C617.24 538.6 610.57 518.28 607.91 510.16C586 443.41 551.86 381.32 507.22 327.07C489.04 304.98 487.76 303.42 466 276.98C432.97 236.84 396.11 200.02 355.93 167.04C332.83 148.09 353.89 165.37 338.27 152.55C273.8 99.64 198.75 61.14 118.16 39.63C105.43 36.24 73.59 27.74 22.65 14.15C59.66 51.53 244.74 238.44 577.87 574.87C607.89 572.61 624.56 571.35 627.9 571.1Z" id="bU3HjYiKl"></path></defs><g><g><g><use xlink:href="#e2Ns8XeYA6" opacity="1" fill="#008080" fill-opacity="1"></use><g><use xlink:href="#e2Ns8XeYA6" opacity="1" fill-opacity="0" stroke="#000000" stroke-width="1" stroke-opacity="0"></use></g></g><g><use xlink:href="#d3e5VQ14tI" opacity="1" fill="#009999" fill-opacity="1"></use><g><use xlink:href="#d3e5VQ14tI" opacity="1" fill-opacity="0" stroke="#ffffff" stroke-width="0" stroke-opacity="1"></use></g></g><g><use xlink:href="#b9SLUSVcSw" opacity="1" fill="#009999" fill-opacity="1"></use><g><use xlink:href="#b9SLUSVcSw" opacity="1" fill-opacity="0" stroke="#000000" stroke-width="1" stroke-opacity="0"></use></g></g><g><use xlink:href="#aU2OXLnE" opacity="1" fill="#000000" fill-opacity="0"></use><g><use xlink:href="#aU2OXLnE" opacity="1" fill-opacity="0" stroke="#ffffff" stroke-width="0" stroke-opacity="1"></use></g></g><g><use xlink:href="#c2MnwmgjYs" opacity="1" fill="#ffffff" fill-opacity="1"></use><g><use xlink:href="#c2MnwmgjYs" opacity="1" fill-opacity="0" stroke="#000000" stroke-width="1" stroke-opacity="0"></use></g></g><g><use xlink:href="#iveTSZ6pR" opacity="1" fill="#000000" fill-opacity="0"></use><g><use xlink:href="#iveTSZ6pR" opacity="1" fill-opacity="0" stroke="#008080" stroke-width="0" stroke-opacity="1"></use></g></g><g><use xlink:href="#dcoQSZUtp" opacity="1" fill="#ffffff" fill-opacity="1"></use><g><use xlink:href="#dcoQSZUtp" opacity="1" fill-opacity="0" stroke="#000000" stroke-width="1" stroke-opacity="0"></use></g></g><g><use xlink:href="#bU3HjYiKl" opacity="1" fill="#000000" fill-opacity="0"></use><g><use xlink:href="#bU3HjYiKl" opacity="1" fill-opacity="0" stroke="#008080" stroke-width="0" stroke-opacity="1"></use></g></g></g></g></svg>