<?xml version="1.0" encoding="UTF-8" standalone="no"?>
<!DOCTYPE svg PUBLIC "-//W3C//DTD SVG 1.1//EN" "http://www.w3.org/Graphics/SVG/1.1/DTD/svg11.dtd">
<svg version="1.1" xmlns="http://www.w3.org/2000/svg" xmlns:xlink="http://www.w3.org/1999/xlink" preserveAspectRatio="xMidYMid meet" viewBox="0 0 550 320" width="550" height="320"><defs><path d="M161.43 268.2C161.43 296.79 140.08 320 113.79 320C87.49 320 66.14 296.79 66.14 268.2C66.14 239.62 87.49 216.41 113.79 216.41C140.08 216.41 161.43 239.62 161.43 268.2Z" id="cmdCXuhPU"></path><path d="M476.09 268.2C476.09 296.79 454.74 320 428.44 320C402.15 320 380.8 296.79 380.8 268.2C380.8 239.62 402.15 216.41 428.44 216.41C454.74 216.41 476.09 239.62 476.09 268.2Z" id="b1f7HTSiYe"></path><path d="M544.34 143.32L550 155.3L544.34 266.03L483.62 266.03L460.76 220.72L410.32 220.72L379.93 273.28L173 270.31L157.41 237.46L71.89 237.46L57.92 266.03L11.43 266.03L2.06 216.02L11.43 143.32L544.34 143.32Z" id="a3SPJ4eRbr"></path><path d="M493.4 15.48C493.4 24.1 393.28 31.1 269.95 31.1C146.63 31.1 46.5 24.1 46.5 15.48C46.5 6.85 146.63 -0.15 269.95 -0.15C393.28 -0.15 493.4 6.85 493.4 15.48Z" id="bf7BdoKcQ"></path><path d="M493.4 39.56C493.4 48.19 393.28 55.19 269.95 55.19C146.63 55.19 46.5 48.19 46.5 39.56C46.5 30.94 146.63 23.93 269.95 23.93C393.28 23.93 493.4 30.94 493.4 39.56Z" id="evHH4950o"></path><path d="M27.89 70.39C41.24 63.23 67.9 58.16 107.86 55.19C167.8 50.72 223.04 52.53 267.65 52.53C312.27 52.53 357.01 53.4 414.47 57.87C452.78 60.84 480.46 65.02 497.51 70.39L544.34 143.32L11.43 143.32L27.89 70.39Z" id="b57cqvoxo"></path></defs><g><g><g><use xlink:href="#cmdCXuhPU" opacity="1" fill="#dad9d9" fill-opacity="1"></use></g><g><use xlink:href="#b1f7HTSiYe" opacity="1" fill="#dad9d9" fill-opacity="1"></use></g><g><use xlink:href="#a3SPJ4eRbr" opacity="1" fill="#009999" fill-opacity="1"></use><g><use xlink:href="#a3SPJ4eRbr" opacity="1" fill-opacity="0" stroke="#4c6e8a" stroke-width="0" stroke-opacity="1"></use></g></g><g><use xlink:href="#bf7BdoKcQ" opacity="1" fill="#61bcbc" fill-opacity="1"></use></g><g><use xlink:href="#evHH4950o" opacity="1" fill="#009999" fill-opacity="1"></use></g><g><use xlink:href="#b57cqvoxo" opacity="1" fill="#dad9d9" fill-opacity="1"></use><g><use xlink:href="#b57cqvoxo" opacity="1" fill-opacity="0" stroke="#fc1010" stroke-width="0" stroke-opacity="1"></use></g></g></g></g></svg>