<?xml version="1.0" encoding="UTF-8" standalone="no"?>
<!DOCTYPE svg PUBLIC "-//W3C//DTD SVG 1.1//EN" "http://www.w3.org/Graphics/SVG/1.1/DTD/svg11.dtd">
<svg version="1.1" xmlns="http://www.w3.org/2000/svg" xmlns:xlink="http://www.w3.org/1999/xlink" preserveAspectRatio="xMidYMid meet" viewBox="0 0 550 320" width="550" height="320"><defs><path d="M237.25 67.51L352.03 71.83L393.93 119.32C406.24 132.63 413.93 140.94 417.01 144.26C420.89 148.46 427.62 148.15 431.1 143.62C434.84 138.76 432.57 141.71 434.61 139.06C443.81 127.09 444.99 110.78 437.62 97.6C433.12 89.56 430.7 85.24 425.93 76.72C418.88 64.12 408.34 53.84 395.58 47.1C381.39 39.61 356.07 26.24 341.3 18.45C330.31 12.64 318.25 9.13 305.86 8.12C288.11 6.68 255.18 4 237.82 2.59C224.1 1.47 210.29 2.7 196.98 6.21C178.04 11.2 135.03 22.55 114.52 27.96C106.43 30.09 98.78 33.63 91.92 38.42C86.78 42 73.94 50.97 53.39 65.31L19.04 105.87L5.08 157.67L237.25 67.51Z" id="a1IZpu4uez"></path><path d="M3.17 318.55C3.17 246.08 3.17 200.79 3.17 182.67C3.17 167.23 6.65 151.98 13.35 138.07C17.18 130.13 14.8 135.07 17.71 129.04C27.38 108.97 42.45 92 61.24 80.03C68.55 75.37 57.93 82.14 64.28 78.09C86.48 63.94 110.81 53.47 136.33 47.06C148.69 43.96 141.92 45.65 152.96 42.89C182.92 35.36 213.76 31.95 244.65 32.74C256.33 33.04 253.86 32.98 267.79 33.33C291.16 33.93 314.26 38.37 336.19 46.46C343.88 49.3 337.89 47.09 346.59 50.3C364.94 57.07 381.07 68.76 393.23 84.08C399.4 91.86 409.17 104.17 417.8 115.05C419.56 117.28 417.28 120.42 414.62 119.42C405.81 116.11 383.77 107.85 348.52 94.62C334.49 93.08 325.73 92.12 322.22 91.74C300.65 89.37 278.84 91.04 257.88 96.65C253.69 97.77 263.28 95.2 256.7 96.96C243.58 100.47 231.05 105.94 219.55 113.17C215.27 115.87 221.61 111.88 217.78 114.28C204.94 122.36 194.7 133.97 188.28 147.71C186.22 152.14 187.28 149.85 184.58 155.64C180.4 164.61 180.54 174.99 184.98 183.83C187.4 188.65 186.96 187.79 189.22 192.28C194.37 202.56 202.01 211.4 211.44 217.99C219.6 223.68 227.96 229.53 235.69 234.93C246.66 242.6 258.43 249.08 270.78 254.26C285.68 260.5 269.87 253.87 274.29 255.73C321.22 275.4 371.32 286.43 422.18 288.28C439.22 288.9 481.83 290.45 550 292.93L550 320L3.17 318.55Z" id="b59sRAfG84"></path></defs><g><g><g><use xlink:href="#a1IZpu4uez" opacity="1" fill="#dad9d9" fill-opacity="1"></use><g><use xlink:href="#a1IZpu4uez" opacity="1" fill-opacity="0" stroke="#fc1010" stroke-width="0" stroke-opacity="1"></use></g></g><g><use xlink:href="#b59sRAfG84" opacity="1" fill="#009999" fill-opacity="1"></use><g><use xlink:href="#b59sRAfG84" opacity="1" fill-opacity="0" stroke="#fc1010" stroke-width="0" stroke-opacity="1"></use></g></g></g></g></svg>